<svg width="265" height="73" viewBox="0 0 265 73" fill="none" xmlns="http://www.w3.org/2000/svg">
<g clip-path="url(#clip0_0_94)">
<path d="M46.0011 56.1218C49.0365 56.1218 51.5 53.8636 51.5 51.0813V46.0408H46.0011C42.9657 46.0408 40.5022 48.2989 40.5022 51.0813C40.5022 53.8636 42.9657 56.1218 46.0011 56.1218Z" fill="#0ACF83"/>
<path d="M40.5022 40.9997C40.5022 38.2174 42.9657 35.9592 46.0011 35.9592H51.5V46.0402H46.0011C42.9657 46.0402 40.5022 43.7821 40.5022 40.9997Z" fill="#A259FF"/>
<path d="M40.5038 30.9189C40.5038 28.1366 42.9673 25.8784 46.0027 25.8784H51.5016V35.9594H46.0027C42.9673 35.9594 40.5038 33.7013 40.5038 30.9189Z" fill="#F24E1E"/>
<path d="M51.5 25.8784H56.9989C60.0343 25.8784 62.4978 28.1366 62.4978 30.9189C62.4978 33.7013 60.0343 35.9594 56.9989 35.9594H51.5V25.8784Z" fill="#FF7262"/>
<path d="M62.4978 40.9997C62.4978 43.7821 60.0343 46.0402 56.9989 46.0402C53.9635 46.0402 51.5 43.7821 51.5 40.9997C51.5 38.2174 53.9635 35.9592 56.9989 35.9592C60.0343 35.9592 62.4978 38.2174 62.4978 40.9997Z" fill="#1ABCFE"/>
</g>
<path d="M75.812 36V24.72H79.796C81.652 24.72 83.0813 25.2053 84.084 26.176C85.0973 27.1467 85.604 28.5387 85.604 30.352C85.604 32.1653 85.0973 33.5627 84.084 34.544C83.0813 35.5147 81.652 36 79.796 36H75.812ZM77.476 34.608H79.7C82.484 34.608 83.876 33.1893 83.876 30.352C83.876 27.5253 82.484 26.112 79.7 26.112H77.476V34.608ZM91.0436 36.144C90.2543 36.144 89.5716 35.9787 88.9956 35.648C88.4196 35.3173 87.9716 34.8533 87.6516 34.256C87.3423 33.648 87.1876 32.928 87.1876 32.096C87.1876 31.264 87.3423 30.5493 87.6516 29.952C87.9716 29.344 88.4196 28.8747 88.9956 28.544C89.5716 28.2133 90.2543 28.048 91.0436 28.048C91.8116 28.048 92.4836 28.2133 93.0596 28.544C93.6356 28.8747 94.0836 29.344 94.4036 29.952C94.7236 30.5493 94.8836 31.264 94.8836 32.096C94.8836 32.928 94.7236 33.648 94.4036 34.256C94.0836 34.8533 93.6356 35.3173 93.0596 35.648C92.4836 35.9787 91.8116 36.144 91.0436 36.144ZM91.0436 34.896C91.705 34.896 92.2383 34.656 92.6436 34.176C93.049 33.696 93.2516 33.0027 93.2516 32.096C93.2516 31.1893 93.049 30.5013 92.6436 30.032C92.2383 29.552 91.705 29.312 91.0436 29.312C90.3716 29.312 89.833 29.552 89.4276 30.032C89.0223 30.5013 88.8196 31.1893 88.8196 32.096C88.8196 33.0027 89.0223 33.696 89.4276 34.176C89.833 34.656 90.3716 34.896 91.0436 34.896ZM98.6699 36L95.6939 28.192H97.3579L99.4539 34.112L101.614 28.192H102.862L104.99 34.144L107.118 28.192H108.702L105.726 36H104.254L102.19 30.416L100.142 36H98.6699ZM110.089 36V28.192H111.657V29.488C111.924 29.0187 112.286 28.6613 112.745 28.416C113.214 28.1707 113.737 28.048 114.313 28.048C116.158 28.048 117.081 29.0933 117.081 31.184V36H115.465V31.28C115.465 30.608 115.332 30.1173 115.065 29.808C114.809 29.4987 114.404 29.344 113.849 29.344C113.198 29.344 112.676 29.552 112.281 29.968C111.897 30.3733 111.705 30.912 111.705 31.584V36H110.089ZM121.852 36.144C120.999 36.144 120.359 35.904 119.932 35.424C119.516 34.944 119.308 34.24 119.308 33.312V24.72H120.924V33.216C120.924 34.272 121.356 34.8 122.22 34.8C122.348 34.8 122.465 34.7947 122.572 34.784C122.689 34.7733 122.807 34.752 122.924 34.72L122.892 36.016C122.529 36.1013 122.183 36.144 121.852 36.144ZM127.512 36.144C126.723 36.144 126.04 35.9787 125.464 35.648C124.888 35.3173 124.44 34.8533 124.12 34.256C123.811 33.648 123.656 32.928 123.656 32.096C123.656 31.264 123.811 30.5493 124.12 29.952C124.44 29.344 124.888 28.8747 125.464 28.544C126.04 28.2133 126.723 28.048 127.512 28.048C128.28 28.048 128.952 28.2133 129.528 28.544C130.104 28.8747 130.552 29.344 130.872 29.952C131.192 30.5493 131.352 31.264 131.352 32.096C131.352 32.928 131.192 33.648 130.872 34.256C130.552 34.8533 130.104 35.3173 129.528 35.648C128.952 35.9787 128.28 36.144 127.512 36.144ZM127.512 34.896C128.174 34.896 128.707 34.656 129.112 34.176C129.518 33.696 129.72 33.0027 129.72 32.096C129.72 31.1893 129.518 30.5013 129.112 30.032C128.707 29.552 128.174 29.312 127.512 29.312C126.84 29.312 126.302 29.552 125.896 30.032C125.491 30.5013 125.288 31.1893 125.288 32.096C125.288 33.0027 125.491 33.696 125.896 34.176C126.302 34.656 126.84 34.896 127.512 34.896ZM135.663 36.144C135.119 36.144 134.634 36.0373 134.207 35.824C133.781 35.6107 133.439 35.3227 133.183 34.96C132.938 34.5973 132.815 34.1867 132.815 33.728C132.815 33.152 132.959 32.6987 133.247 32.368C133.546 32.0373 134.031 31.7973 134.703 31.648C135.386 31.4987 136.303 31.424 137.455 31.424H137.999V31.008C137.999 30.4 137.871 29.9627 137.615 29.696C137.359 29.4293 136.938 29.296 136.351 29.296C135.903 29.296 135.455 29.3653 135.007 29.504C134.559 29.632 134.101 29.84 133.631 30.128L133.135 28.992C133.541 28.704 134.047 28.4747 134.655 28.304C135.263 28.1333 135.845 28.048 136.399 28.048C137.466 28.048 138.255 28.304 138.767 28.816C139.279 29.3173 139.535 30.1067 139.535 31.184V36H138.015V34.704C137.823 35.152 137.525 35.504 137.119 35.76C136.714 36.016 136.229 36.144 135.663 36.144ZM135.983 34.992C136.559 34.992 137.039 34.7893 137.423 34.384C137.807 33.9787 137.999 33.4667 137.999 32.848V32.416H137.471C136.693 32.416 136.079 32.4533 135.631 32.528C135.194 32.6027 134.879 32.7307 134.687 32.912C134.506 33.0827 134.415 33.3227 134.415 33.632C134.415 34.0373 134.554 34.368 134.831 34.624C135.109 34.8693 135.493 34.992 135.983 34.992ZM144.737 36.144C144.054 36.144 143.452 35.984 142.929 35.664C142.417 35.3333 142.017 34.864 141.729 34.256C141.441 33.648 141.297 32.928 141.297 32.096C141.297 31.264 141.441 30.5493 141.729 29.952C142.017 29.344 142.417 28.8747 142.929 28.544C143.441 28.2133 144.044 28.048 144.737 28.048C145.324 28.048 145.846 28.176 146.305 28.432C146.764 28.688 147.105 29.0347 147.329 29.472V24.72H148.945V36H147.361V34.64C147.137 35.1093 146.79 35.4773 146.321 35.744C145.862 36.0107 145.334 36.144 144.737 36.144ZM145.153 34.896C145.814 34.896 146.348 34.656 146.753 34.176C147.158 33.696 147.361 33.0027 147.361 32.096C147.361 31.1893 147.158 30.5013 146.753 30.032C146.348 29.552 145.814 29.312 145.153 29.312C144.481 29.312 143.942 29.552 143.537 30.032C143.132 30.5013 142.929 31.1893 142.929 32.096C142.929 33.0027 143.132 33.696 143.537 34.176C143.942 34.656 144.481 34.896 145.153 34.896ZM155.849 36V29.68H154.345V28.176H155.849V28.16C155.849 27.0507 156.137 26.2133 156.713 25.648C157.3 25.0827 158.207 24.7627 159.433 24.688L160.217 24.64L160.345 26.112L159.609 26.16C158.969 26.2027 158.516 26.3627 158.249 26.64C157.983 26.9067 157.849 27.3067 157.849 27.84V28.176H159.977V29.68H157.849V36H155.849ZM164.514 36.16C163.704 36.16 163 35.9947 162.402 35.664C161.805 35.3333 161.341 34.864 161.01 34.256C160.68 33.6373 160.514 32.912 160.514 32.08C160.514 31.248 160.68 30.528 161.01 29.92C161.341 29.312 161.805 28.8427 162.402 28.512C163 28.1813 163.704 28.016 164.514 28.016C165.325 28.016 166.029 28.1813 166.626 28.512C167.224 28.8427 167.688 29.312 168.018 29.92C168.349 30.528 168.514 31.248 168.514 32.08C168.514 32.912 168.349 33.6373 168.018 34.256C167.688 34.864 167.224 35.3333 166.626 35.664C166.029 35.9947 165.325 36.16 164.514 36.16ZM164.514 34.64C165.112 34.64 165.592 34.4267 165.954 34C166.317 33.5627 166.498 32.9227 166.498 32.08C166.498 31.2267 166.317 30.592 165.954 30.176C165.592 29.7493 165.112 29.536 164.514 29.536C163.917 29.536 163.437 29.7493 163.074 30.176C162.712 30.592 162.53 31.2267 162.53 32.08C162.53 32.9227 162.712 33.5627 163.074 34C163.437 34.4267 163.917 34.64 164.514 34.64ZM170.165 36V28.176H172.117V29.552C172.501 28.624 173.322 28.112 174.581 28.016L175.189 27.968L175.317 29.664L174.165 29.776C172.853 29.904 172.197 30.576 172.197 31.792V36H170.165ZM75.732 56V44.72H83.108V46.352H77.78V49.536H82.772V51.168H77.78V56H75.732ZM84.3964 46.496V44.544H86.6364V46.496H84.3964ZM84.5244 56V48.176H86.5244V56H84.5244ZM92.2505 59.04C91.5252 59.04 90.8425 58.9547 90.2025 58.784C89.5732 58.624 89.0185 58.3733 88.5385 58.032L89.1145 56.64C89.5625 56.9387 90.0425 57.1573 90.5545 57.296C91.0665 57.4453 91.5785 57.52 92.0905 57.52C93.5198 57.52 94.2345 56.832 94.2345 55.456V54.384C94.0105 54.8213 93.6638 55.168 93.1945 55.424C92.7358 55.68 92.2238 55.808 91.6585 55.808C90.9545 55.808 90.3412 55.648 89.8185 55.328C89.2958 54.9973 88.8905 54.5387 88.6025 53.952C88.3145 53.3653 88.1705 52.6827 88.1705 51.904C88.1705 51.1253 88.3145 50.448 88.6025 49.872C88.8905 49.2853 89.2958 48.832 89.8185 48.512C90.3412 48.1813 90.9545 48.016 91.6585 48.016C92.2452 48.016 92.7678 48.1493 93.2265 48.416C93.6852 48.672 94.0212 49.0187 94.2345 49.456V48.176H96.1865V55.216C96.1865 56.4853 95.8505 57.44 95.1785 58.08C94.5065 58.72 93.5305 59.04 92.2505 59.04ZM92.2025 54.288C92.8212 54.288 93.3118 54.0747 93.6745 53.648C94.0372 53.2213 94.2185 52.64 94.2185 51.904C94.2185 51.168 94.0372 50.592 93.6745 50.176C93.3118 49.7493 92.8212 49.536 92.2025 49.536C91.5838 49.536 91.0932 49.7493 90.7305 50.176C90.3678 50.592 90.1865 51.168 90.1865 51.904C90.1865 52.64 90.3678 53.2213 90.7305 53.648C91.0932 54.0747 91.5838 54.288 92.2025 54.288ZM98.2908 56V48.176H100.243V49.376C100.477 48.9493 100.803 48.6187 101.219 48.384C101.635 48.1387 102.115 48.016 102.659 48.016C103.832 48.016 104.6 48.528 104.963 49.552C105.208 49.072 105.56 48.6987 106.019 48.432C106.477 48.1547 107 48.016 107.587 48.016C109.347 48.016 110.227 49.088 110.227 51.232V56H108.227V51.312C108.227 50.7147 108.125 50.2773 107.923 50C107.731 49.7227 107.4 49.584 106.931 49.584C106.408 49.584 105.997 49.7707 105.699 50.144C105.4 50.5067 105.251 51.0133 105.251 51.664V56H103.251V51.312C103.251 50.7147 103.149 50.2773 102.947 50C102.755 49.7227 102.429 49.584 101.971 49.584C101.448 49.584 101.037 49.7707 100.739 50.144C100.44 50.5067 100.291 51.0133 100.291 51.664V56H98.2908ZM114.866 56.16C114.301 56.16 113.794 56.0533 113.346 55.84C112.909 55.616 112.562 55.3173 112.306 54.944C112.061 54.5707 111.938 54.1493 111.938 53.68C111.938 53.104 112.087 52.6507 112.386 52.32C112.685 51.9787 113.17 51.7333 113.842 51.584C114.514 51.4347 115.415 51.36 116.546 51.36H117.106V51.024C117.106 50.4907 116.989 50.1067 116.754 49.872C116.519 49.6373 116.125 49.52 115.57 49.52C115.133 49.52 114.685 49.5893 114.226 49.728C113.767 49.856 113.303 50.0587 112.834 50.336L112.258 48.976C112.535 48.784 112.861 48.6187 113.234 48.48C113.618 48.3307 114.018 48.2187 114.434 48.144C114.861 48.0587 115.261 48.016 115.634 48.016C116.775 48.016 117.623 48.2827 118.178 48.816C118.733 49.3387 119.01 50.1547 119.01 51.264V56H117.138V54.752C116.957 55.1893 116.669 55.536 116.274 55.792C115.879 56.0373 115.41 56.16 114.866 56.16ZM115.282 54.784C115.805 54.784 116.237 54.6027 116.578 54.24C116.93 53.8773 117.106 53.4187 117.106 52.864V52.512H116.562C115.559 52.512 114.861 52.592 114.466 52.752C114.082 52.9013 113.89 53.1787 113.89 53.584C113.89 53.936 114.013 54.224 114.258 54.448C114.503 54.672 114.845 54.784 115.282 54.784Z" fill="#FFCCBC"/>
<rect x="1.5" y="1" width="262" height="80" rx="40" stroke="#FFCCBC" stroke-width="2"/>
<defs>
<clipPath id="clip0_0_94">
<rect width="22" height="30.243" fill="white" transform="translate(40.5 25.8784)"/>
</clipPath>
</defs>
</svg>
